<?xml version="1.0" encoding="utf-8" standalone="no"?>
<!DOCTYPE svg PUBLIC "-//W3C//DTD SVG 1.1//EN"
  "http://www.w3.org/Graphics/SVG/1.1/DTD/svg11.dtd">
<svg xmlns:xlink="http://www.w3.org/1999/xlink" width="460.8pt" height="345.6pt" viewBox="0 0 460.8 345.6" xmlns="http://www.w3.org/2000/svg" version="1.1">
 <metadata>
  <rdf:RDF xmlns:dc="http://purl.org/dc/elements/1.1/" xmlns:cc="http://creativecommons.org/ns#" xmlns:rdf="http://www.w3.org/1999/02/22-rdf-syntax-ns#">
   <cc:Work>
    <dc:type rdf:resource="http://purl.org/dc/dcmitype/StillImage"/>
    <dc:date>2025-05-16T17:41:11.421379</dc:date>
    <dc:format>image/svg+xml</dc:format>
    <dc:creator>
     <cc:Agent>
      <dc:title>Matplotlib v3.10.1, https://matplotlib.org/</dc:title>
     </cc:Agent>
    </dc:creator>
   </cc:Work>
  </rdf:RDF>
 </metadata>
 <defs>
  <style type="text/css">*{stroke-linejoin: round; stroke-linecap: butt}</style>
 </defs>
 <g id="figure_1">
  <g id="patch_1">
   <path d="M 0 345.6 
L 460.8 345.6 
L 460.8 0 
L 0 0 
z
" style="fill: #ffffff"/>
  </g>
  <g id="axes_1">
   <g id="patch_2">
    <path d="M 66.909242 144.74 
L 450 144.74 
L 450 26.88 
L 66.909242 26.88 
z
" style="fill: #ffffff"/>
   </g>
   <g id="patch_3">
    <path d="M 84.322459 204002.691099 
L 110.119816 204002.691099 
L 110.119816 37.769458 
L 84.322459 37.769458 
z
" clip-path="url(#p2f5d7fa4b5)" style="fill: #1f77b4"/>
   </g>
   <g id="patch_4">
    <path d="M 116.569155 204002.691099 
L 142.366513 204002.691099 
L 142.366513 35.148172 
L 116.569155 35.148172 
z
" clip-path="url(#p2f5d7fa4b5)" style="fill: #1f77b4"/>
   </g>
   <g id="patch_5">
    <path d="M 148.815852 204002.691099 
L 174.61321 204002.691099 
L 174.61321 124.282475 
L 148.815852 124.282475 
z
" clip-path="url(#p2f5d7fa4b5)" style="fill: #1f77b4"/>
   </g>
   <g id="patch_6">
    <path d="M 181.062549 204002.691099 
L 206.859906 204002.691099 
L 206.859906 110.755679 
L 181.062549 110.755679 
z
" clip-path="url(#p2f5d7fa4b5)" style="fill: #1f77b4"/>
   </g>
   <g id="patch_7">
    <path d="M 213.309246 204002.691099 
L 239.106603 204002.691099 
L 239.106603 37.824904 
L 213.309246 37.824904 
z
" clip-path="url(#p2f5d7fa4b5)" style="fill: #1f77b4"/>
   </g>
   <g id="patch_8">
    <path d="M 245.555942 204002.691099 
L 271.3533 204002.691099 
L 271.3533 123.400956 
L 245.555942 123.400956 
z
" clip-path="url(#p2f5d7fa4b5)" style="fill: #1f77b4"/>
   </g>
   <g id="patch_9">
    <path d="M 277.802639 204002.691099 
L 303.599997 204002.691099 
L 303.599997 115.571949 
L 277.802639 115.571949 
z
" clip-path="url(#p2f5d7fa4b5)" style="fill: #1f77b4"/>
   </g>
   <g id="patch_10">
    <path d="M 310.049336 204002.691099 
L 335.846693 204002.691099 
L 335.846693 38.828936 
L 310.049336 38.828936 
z
" clip-path="url(#p2f5d7fa4b5)" style="fill: #1f77b4"/>
   </g>
   <g id="patch_11">
    <path d="M 342.296033 204002.691099 
L 368.09339 204002.691099 
L 368.09339 130.079595 
L 342.296033 130.079595 
z
" clip-path="url(#p2f5d7fa4b5)" style="fill: #1f77b4"/>
   </g>
   <g id="patch_12">
    <path d="M 374.54273 204002.691099 
L 400.340087 204002.691099 
L 400.340087 129.92206 
L 374.54273 129.92206 
z
" clip-path="url(#p2f5d7fa4b5)" style="fill: #1f77b4"/>
   </g>
   <g id="patch_13">
    <path d="M 406.789426 204002.691099 
L 432.586784 204002.691099 
L 432.586784 40.585324 
L 406.789426 40.585324 
z
" clip-path="url(#p2f5d7fa4b5)" style="fill: #1f77b4"/>
   </g>
   <g id="matplotlib.axis_1">
    <g id="xtick_1">
     <g id="line2d_1">
      <defs>
       <path id="mebf4fd3309" d="M 0 0 
L 0 3.5 
" style="stroke: #000000; stroke-width: 0.8"/>
      </defs>
      <g>
       <use xlink:href="#mebf4fd3309" x="97.221137" y="144.74" style="stroke: #000000; stroke-width: 0.8"/>
      </g>
     </g>
     <g id="text_1">
      <!-- JavaArrayBlockingQueue(128) -->
      <g transform="translate(99.980512 302.054062) rotate(-90) scale(0.1 -0.1)">
       <defs>
        <path id="DejaVuSans-4a" d="M 628 4666 
L 1259 4666 
L 1259 325 
Q 1259 -519 939 -900 
Q 619 -1281 -91 -1281 
L -331 -1281 
L -331 -750 
L -134 -750 
Q 284 -750 456 -515 
Q 628 -281 628 325 
L 628 4666 
z
" transform="scale(0.015625)"/>
        <path id="DejaVuSans-61" d="M 2194 1759 
Q 1497 1759 1228 1600 
Q 959 1441 959 1056 
Q 959 750 1161 570 
Q 1363 391 1709 391 
Q 2188 391 2477 730 
Q 2766 1069 2766 1631 
L 2766 1759 
L 2194 1759 
z
M 3341 1997 
L 3341 0 
L 2766 0 
L 2766 531 
Q 2569 213 2275 61 
Q 1981 -91 1556 -91 
Q 1019 -91 701 211 
Q 384 513 384 1019 
Q 384 1609 779 1909 
Q 1175 2209 1959 2209 
L 2766 2209 
L 2766 2266 
Q 2766 2663 2505 2880 
Q 2244 3097 1772 3097 
Q 1472 3097 1187 3025 
Q 903 2953 641 2809 
L 641 3341 
Q 956 3463 1253 3523 
Q 1550 3584 1831 3584 
Q 2591 3584 2966 3190 
Q 3341 2797 3341 1997 
z
" transform="scale(0.015625)"/>
        <path id="DejaVuSans-76" d="M 191 3500 
L 800 3500 
L 1894 563 
L 2988 3500 
L 3597 3500 
L 2284 0 
L 1503 0 
L 191 3500 
z
" transform="scale(0.015625)"/>
        <path id="DejaVuSans-41" d="M 2188 4044 
L 1331 1722 
L 3047 1722 
L 2188 4044 
z
M 1831 4666 
L 2547 4666 
L 4325 0 
L 3669 0 
L 3244 1197 
L 1141 1197 
L 716 0 
L 50 0 
L 1831 4666 
z
" transform="scale(0.015625)"/>
        <path id="DejaVuSans-72" d="M 2631 2963 
Q 2534 3019 2420 3045 
Q 2306 3072 2169 3072 
Q 1681 3072 1420 2755 
Q 1159 2438 1159 1844 
L 1159 0 
L 581 0 
L 581 3500 
L 1159 3500 
L 1159 2956 
Q 1341 3275 1631 3429 
Q 1922 3584 2338 3584 
Q 2397 3584 2469 3576 
Q 2541 3569 2628 3553 
L 2631 2963 
z
" transform="scale(0.015625)"/>
        <path id="DejaVuSans-79" d="M 2059 -325 
Q 1816 -950 1584 -1140 
Q 1353 -1331 966 -1331 
L 506 -1331 
L 506 -850 
L 844 -850 
Q 1081 -850 1212 -737 
Q 1344 -625 1503 -206 
L 1606 56 
L 191 3500 
L 800 3500 
L 1894 763 
L 2988 3500 
L 3597 3500 
L 2059 -325 
z
" transform="scale(0.015625)"/>
        <path id="DejaVuSans-42" d="M 1259 2228 
L 1259 519 
L 2272 519 
Q 2781 519 3026 730 
Q 3272 941 3272 1375 
Q 3272 1813 3026 2020 
Q 2781 2228 2272 2228 
L 1259 2228 
z
M 1259 4147 
L 1259 2741 
L 2194 2741 
Q 2656 2741 2882 2914 
Q 3109 3088 3109 3444 
Q 3109 3797 2882 3972 
Q 2656 4147 2194 4147 
L 1259 4147 
z
M 628 4666 
L 2241 4666 
Q 2963 4666 3353 4366 
Q 3744 4066 3744 3513 
Q 3744 3084 3544 2831 
Q 3344 2578 2956 2516 
Q 3422 2416 3680 2098 
Q 3938 1781 3938 1306 
Q 3938 681 3513 340 
Q 3088 0 2303 0 
L 628 0 
L 628 4666 
z
" transform="scale(0.015625)"/>
        <path id="DejaVuSans-6c" d="M 603 4863 
L 1178 4863 
L 1178 0 
L 603 0 
L 603 4863 
z
" transform="scale(0.015625)"/>
        <path id="DejaVuSans-6f" d="M 1959 3097 
Q 1497 3097 1228 2736 
Q 959 2375 959 1747 
Q 959 1119 1226 758 
Q 1494 397 1959 397 
Q 2419 397 2687 759 
Q 2956 1122 2956 1747 
Q 2956 2369 2687 2733 
Q 2419 3097 1959 3097 
z
M 1959 3584 
Q 2709 3584 3137 3096 
Q 3566 2609 3566 1747 
Q 3566 888 3137 398 
Q 2709 -91 1959 -91 
Q 1206 -91 779 398 
Q 353 888 353 1747 
Q 353 2609 779 3096 
Q 1206 3584 1959 3584 
z
" transform="scale(0.015625)"/>
        <path id="DejaVuSans-63" d="M 3122 3366 
L 3122 2828 
Q 2878 2963 2633 3030 
Q 2388 3097 2138 3097 
Q 1578 3097 1268 2742 
Q 959 2388 959 1747 
Q 959 1106 1268 751 
Q 1578 397 2138 397 
Q 2388 397 2633 464 
Q 2878 531 3122 666 
L 3122 134 
Q 2881 22 2623 -34 
Q 2366 -91 2075 -91 
Q 1284 -91 818 406 
Q 353 903 353 1747 
Q 353 2603 823 3093 
Q 1294 3584 2113 3584 
Q 2378 3584 2631 3529 
Q 2884 3475 3122 3366 
z
" transform="scale(0.015625)"/>
        <path id="DejaVuSans-6b" d="M 581 4863 
L 1159 4863 
L 1159 1991 
L 2875 3500 
L 3609 3500 
L 1753 1863 
L 3688 0 
L 2938 0 
L 1159 1709 
L 1159 0 
L 581 0 
L 581 4863 
z
" transform="scale(0.015625)"/>
        <path id="DejaVuSans-69" d="M 603 3500 
L 1178 3500 
L 1178 0 
L 603 0 
L 603 3500 
z
M 603 4863 
L 1178 4863 
L 1178 4134 
L 603 4134 
L 603 4863 
z
" transform="scale(0.015625)"/>
        <path id="DejaVuSans-6e" d="M 3513 2113 
L 3513 0 
L 2938 0 
L 2938 2094 
Q 2938 2591 2744 2837 
Q 2550 3084 2163 3084 
Q 1697 3084 1428 2787 
Q 1159 2491 1159 1978 
L 1159 0 
L 581 0 
L 581 3500 
L 1159 3500 
L 1159 2956 
Q 1366 3272 1645 3428 
Q 1925 3584 2291 3584 
Q 2894 3584 3203 3211 
Q 3513 2838 3513 2113 
z
" transform="scale(0.015625)"/>
        <path id="DejaVuSans-67" d="M 2906 1791 
Q 2906 2416 2648 2759 
Q 2391 3103 1925 3103 
Q 1463 3103 1205 2759 
Q 947 2416 947 1791 
Q 947 1169 1205 825 
Q 1463 481 1925 481 
Q 2391 481 2648 825 
Q 2906 1169 2906 1791 
z
M 3481 434 
Q 3481 -459 3084 -895 
Q 2688 -1331 1869 -1331 
Q 1566 -1331 1297 -1286 
Q 1028 -1241 775 -1147 
L 775 -588 
Q 1028 -725 1275 -790 
Q 1522 -856 1778 -856 
Q 2344 -856 2625 -561 
Q 2906 -266 2906 331 
L 2906 616 
Q 2728 306 2450 153 
Q 2172 0 1784 0 
Q 1141 0 747 490 
Q 353 981 353 1791 
Q 353 2603 747 3093 
Q 1141 3584 1784 3584 
Q 2172 3584 2450 3431 
Q 2728 3278 2906 2969 
L 2906 3500 
L 3481 3500 
L 3481 434 
z
" transform="scale(0.015625)"/>
        <path id="DejaVuSans-51" d="M 2522 4238 
Q 1834 4238 1429 3725 
Q 1025 3213 1025 2328 
Q 1025 1447 1429 934 
Q 1834 422 2522 422 
Q 3209 422 3611 934 
Q 4013 1447 4013 2328 
Q 4013 3213 3611 3725 
Q 3209 4238 2522 4238 
z
M 3406 84 
L 4238 -825 
L 3475 -825 
L 2784 -78 
Q 2681 -84 2626 -87 
Q 2572 -91 2522 -91 
Q 1538 -91 948 567 
Q 359 1225 359 2328 
Q 359 3434 948 4092 
Q 1538 4750 2522 4750 
Q 3503 4750 4090 4092 
Q 4678 3434 4678 2328 
Q 4678 1516 4351 937 
Q 4025 359 3406 84 
z
" transform="scale(0.015625)"/>
        <path id="DejaVuSans-75" d="M 544 1381 
L 544 3500 
L 1119 3500 
L 1119 1403 
Q 1119 906 1312 657 
Q 1506 409 1894 409 
Q 2359 409 2629 706 
Q 2900 1003 2900 1516 
L 2900 3500 
L 3475 3500 
L 3475 0 
L 2900 0 
L 2900 538 
Q 2691 219 2414 64 
Q 2138 -91 1772 -91 
Q 1169 -91 856 284 
Q 544 659 544 1381 
z
M 1991 3584 
L 1991 3584 
z
" transform="scale(0.015625)"/>
        <path id="DejaVuSans-65" d="M 3597 1894 
L 3597 1613 
L 953 1613 
Q 991 1019 1311 708 
Q 1631 397 2203 397 
Q 2534 397 2845 478 
Q 3156 559 3463 722 
L 3463 178 
Q 3153 47 2828 -22 
Q 2503 -91 2169 -91 
Q 1331 -91 842 396 
Q 353 884 353 1716 
Q 353 2575 817 3079 
Q 1281 3584 2069 3584 
Q 2775 3584 3186 3129 
Q 3597 2675 3597 1894 
z
M 3022 2063 
Q 3016 2534 2758 2815 
Q 2500 3097 2075 3097 
Q 1594 3097 1305 2825 
Q 1016 2553 972 2059 
L 3022 2063 
z
" transform="scale(0.015625)"/>
        <path id="DejaVuSans-28" d="M 1984 4856 
Q 1566 4138 1362 3434 
Q 1159 2731 1159 2009 
Q 1159 1288 1364 580 
Q 1569 -128 1984 -844 
L 1484 -844 
Q 1016 -109 783 600 
Q 550 1309 550 2009 
Q 550 2706 781 3412 
Q 1013 4119 1484 4856 
L 1984 4856 
z
" transform="scale(0.015625)"/>
        <path id="DejaVuSans-31" d="M 794 531 
L 1825 531 
L 1825 4091 
L 703 3866 
L 703 4441 
L 1819 4666 
L 2450 4666 
L 2450 531 
L 3481 531 
L 3481 0 
L 794 0 
L 794 531 
z
" transform="scale(0.015625)"/>
        <path id="DejaVuSans-32" d="M 1228 531 
L 3431 531 
L 3431 0 
L 469 0 
L 469 531 
Q 828 903 1448 1529 
Q 2069 2156 2228 2338 
Q 2531 2678 2651 2914 
Q 2772 3150 2772 3378 
Q 2772 3750 2511 3984 
Q 2250 4219 1831 4219 
Q 1534 4219 1204 4116 
Q 875 4013 500 3803 
L 500 4441 
Q 881 4594 1212 4672 
Q 1544 4750 1819 4750 
Q 2544 4750 2975 4387 
Q 3406 4025 3406 3419 
Q 3406 3131 3298 2873 
Q 3191 2616 2906 2266 
Q 2828 2175 2409 1742 
Q 1991 1309 1228 531 
z
" transform="scale(0.015625)"/>
        <path id="DejaVuSans-38" d="M 2034 2216 
Q 1584 2216 1326 1975 
Q 1069 1734 1069 1313 
Q 1069 891 1326 650 
Q 1584 409 2034 409 
Q 2484 409 2743 651 
Q 3003 894 3003 1313 
Q 3003 1734 2745 1975 
Q 2488 2216 2034 2216 
z
M 1403 2484 
Q 997 2584 770 2862 
Q 544 3141 544 3541 
Q 544 4100 942 4425 
Q 1341 4750 2034 4750 
Q 2731 4750 3128 4425 
Q 3525 4100 3525 3541 
Q 3525 3141 3298 2862 
Q 3072 2584 2669 2484 
Q 3125 2378 3379 2068 
Q 3634 1759 3634 1313 
Q 3634 634 3220 271 
Q 2806 -91 2034 -91 
Q 1263 -91 848 271 
Q 434 634 434 1313 
Q 434 1759 690 2068 
Q 947 2378 1403 2484 
z
M 1172 3481 
Q 1172 3119 1398 2916 
Q 1625 2713 2034 2713 
Q 2441 2713 2670 2916 
Q 2900 3119 2900 3481 
Q 2900 3844 2670 4047 
Q 2441 4250 2034 4250 
Q 1625 4250 1398 4047 
Q 1172 3844 1172 3481 
z
" transform="scale(0.015625)"/>
        <path id="DejaVuSans-29" d="M 513 4856 
L 1013 4856 
Q 1481 4119 1714 3412 
Q 1947 2706 1947 2009 
Q 1947 1309 1714 600 
Q 1481 -109 1013 -844 
L 513 -844 
Q 928 -128 1133 580 
Q 1338 1288 1338 2009 
Q 1338 2731 1133 3434 
Q 928 4138 513 4856 
z
" transform="scale(0.015625)"/>
       </defs>
       <use xlink:href="#DejaVuSans-4a"/>
       <use xlink:href="#DejaVuSans-61" transform="translate(29.492188 0)"/>
       <use xlink:href="#DejaVuSans-76" transform="translate(90.771484 0)"/>
       <use xlink:href="#DejaVuSans-61" transform="translate(149.951172 0)"/>
       <use xlink:href="#DejaVuSans-41" transform="translate(211.230469 0)"/>
       <use xlink:href="#DejaVuSans-72" transform="translate(279.638672 0)"/>
       <use xlink:href="#DejaVuSans-72" transform="translate(319.001953 0)"/>
       <use xlink:href="#DejaVuSans-61" transform="translate(360.115234 0)"/>
       <use xlink:href="#DejaVuSans-79" transform="translate(421.394531 0)"/>
       <use xlink:href="#DejaVuSans-42" transform="translate(480.574219 0)"/>
       <use xlink:href="#DejaVuSans-6c" transform="translate(549.177734 0)"/>
       <use xlink:href="#DejaVuSans-6f" transform="translate(576.960938 0)"/>
       <use xlink:href="#DejaVuSans-63" transform="translate(638.142578 0)"/>
       <use xlink:href="#DejaVuSans-6b" transform="translate(693.123047 0)"/>
       <use xlink:href="#DejaVuSans-69" transform="translate(751.033203 0)"/>
       <use xlink:href="#DejaVuSans-6e" transform="translate(778.816406 0)"/>
       <use xlink:href="#DejaVuSans-67" transform="translate(842.195312 0)"/>
       <use xlink:href="#DejaVuSans-51" transform="translate(905.671875 0)"/>
       <use xlink:href="#DejaVuSans-75" transform="translate(984.382812 0)"/>
       <use xlink:href="#DejaVuSans-65" transform="translate(1047.761719 0)"/>
       <use xlink:href="#DejaVuSans-75" transform="translate(1109.285156 0)"/>
       <use xlink:href="#DejaVuSans-65" transform="translate(1172.664062 0)"/>
       <use xlink:href="#DejaVuSans-28" transform="translate(1234.1875 0)"/>
       <use xlink:href="#DejaVuSans-31" transform="translate(1273.201172 0)"/>
       <use xlink:href="#DejaVuSans-32" transform="translate(1336.824219 0)"/>
       <use xlink:href="#DejaVuSans-38" transform="translate(1400.447266 0)"/>
       <use xlink:href="#DejaVuSans-29" transform="translate(1464.070312 0)"/>
      </g>
     </g>
    </g>
    <g id="xtick_2">
     <g id="line2d_2">
      <g>
       <use xlink:href="#mebf4fd3309" x="129.467834" y="144.74" style="stroke: #000000; stroke-width: 0.8"/>
      </g>
     </g>
     <g id="text_2">
      <!-- JavaLinkedBlockingQueue -->
      <g transform="translate(132.227209 280.84625) rotate(-90) scale(0.1 -0.1)">
       <defs>
        <path id="DejaVuSans-4c" d="M 628 4666 
L 1259 4666 
L 1259 531 
L 3531 531 
L 3531 0 
L 628 0 
L 628 4666 
z
" transform="scale(0.015625)"/>
        <path id="DejaVuSans-64" d="M 2906 2969 
L 2906 4863 
L 3481 4863 
L 3481 0 
L 2906 0 
L 2906 525 
Q 2725 213 2448 61 
Q 2172 -91 1784 -91 
Q 1150 -91 751 415 
Q 353 922 353 1747 
Q 353 2572 751 3078 
Q 1150 3584 1784 3584 
Q 2172 3584 2448 3432 
Q 2725 3281 2906 2969 
z
M 947 1747 
Q 947 1113 1208 752 
Q 1469 391 1925 391 
Q 2381 391 2643 752 
Q 2906 1113 2906 1747 
Q 2906 2381 2643 2742 
Q 2381 3103 1925 3103 
Q 1469 3103 1208 2742 
Q 947 2381 947 1747 
z
" transform="scale(0.015625)"/>
       </defs>
       <use xlink:href="#DejaVuSans-4a"/>
       <use xlink:href="#DejaVuSans-61" transform="translate(29.492188 0)"/>
       <use xlink:href="#DejaVuSans-76" transform="translate(90.771484 0)"/>
       <use xlink:href="#DejaVuSans-61" transform="translate(149.951172 0)"/>
       <use xlink:href="#DejaVuSans-4c" transform="translate(211.230469 0)"/>
       <use xlink:href="#DejaVuSans-69" transform="translate(266.943359 0)"/>
       <use xlink:href="#DejaVuSans-6e" transform="translate(294.726562 0)"/>
       <use xlink:href="#DejaVuSans-6b" transform="translate(358.105469 0)"/>
       <use xlink:href="#DejaVuSans-65" transform="translate(412.390625 0)"/>
       <use xlink:href="#DejaVuSans-64" transform="translate(473.914062 0)"/>
       <use xlink:href="#DejaVuSans-42" transform="translate(537.390625 0)"/>
       <use xlink:href="#DejaVuSans-6c" transform="translate(605.994141 0)"/>
       <use xlink:href="#DejaVuSans-6f" transform="translate(633.777344 0)"/>
       <use xlink:href="#DejaVuSans-63" transform="translate(694.958984 0)"/>
       <use xlink:href="#DejaVuSans-6b" transform="translate(749.939453 0)"/>
       <use xlink:href="#DejaVuSans-69" transform="translate(807.849609 0)"/>
       <use xlink:href="#DejaVuSans-6e" transform="translate(835.632812 0)"/>
       <use xlink:href="#DejaVuSans-67" transform="translate(899.011719 0)"/>
       <use xlink:href="#DejaVuSans-51" transform="translate(962.488281 0)"/>
       <use xlink:href="#DejaVuSans-75" transform="translate(1041.199219 0)"/>
       <use xlink:href="#DejaVuSans-65" transform="translate(1104.578125 0)"/>
       <use xlink:href="#DejaVuSans-75" transform="translate(1166.101562 0)"/>
       <use xlink:href="#DejaVuSans-65" transform="translate(1229.480469 0)"/>
      </g>
     </g>
    </g>
    <g id="xtick_3">
     <g id="line2d_3">
      <g>
       <use xlink:href="#mebf4fd3309" x="161.714531" y="144.74" style="stroke: #000000; stroke-width: 0.8"/>
      </g>
     </g>
     <g id="text_3">
      <!-- Synchronized(JavaArrayDeque(128)) -->
      <g transform="translate(164.473906 334.49625) rotate(-90) scale(0.1 -0.1)">
       <defs>
        <path id="DejaVuSans-53" d="M 3425 4513 
L 3425 3897 
Q 3066 4069 2747 4153 
Q 2428 4238 2131 4238 
Q 1616 4238 1336 4038 
Q 1056 3838 1056 3469 
Q 1056 3159 1242 3001 
Q 1428 2844 1947 2747 
L 2328 2669 
Q 3034 2534 3370 2195 
Q 3706 1856 3706 1288 
Q 3706 609 3251 259 
Q 2797 -91 1919 -91 
Q 1588 -91 1214 -16 
Q 841 59 441 206 
L 441 856 
Q 825 641 1194 531 
Q 1563 422 1919 422 
Q 2459 422 2753 634 
Q 3047 847 3047 1241 
Q 3047 1584 2836 1778 
Q 2625 1972 2144 2069 
L 1759 2144 
Q 1053 2284 737 2584 
Q 422 2884 422 3419 
Q 422 4038 858 4394 
Q 1294 4750 2059 4750 
Q 2388 4750 2728 4690 
Q 3069 4631 3425 4513 
z
" transform="scale(0.015625)"/>
        <path id="DejaVuSans-68" d="M 3513 2113 
L 3513 0 
L 2938 0 
L 2938 2094 
Q 2938 2591 2744 2837 
Q 2550 3084 2163 3084 
Q 1697 3084 1428 2787 
Q 1159 2491 1159 1978 
L 1159 0 
L 581 0 
L 581 4863 
L 1159 4863 
L 1159 2956 
Q 1366 3272 1645 3428 
Q 1925 3584 2291 3584 
Q 2894 3584 3203 3211 
Q 3513 2838 3513 2113 
z
" transform="scale(0.015625)"/>
        <path id="DejaVuSans-7a" d="M 353 3500 
L 3084 3500 
L 3084 2975 
L 922 459 
L 3084 459 
L 3084 0 
L 275 0 
L 275 525 
L 2438 3041 
L 353 3041 
L 353 3500 
z
" transform="scale(0.015625)"/>
        <path id="DejaVuSans-44" d="M 1259 4147 
L 1259 519 
L 2022 519 
Q 2988 519 3436 956 
Q 3884 1394 3884 2338 
Q 3884 3275 3436 3711 
Q 2988 4147 2022 4147 
L 1259 4147 
z
M 628 4666 
L 1925 4666 
Q 3281 4666 3915 4102 
Q 4550 3538 4550 2338 
Q 4550 1131 3912 565 
Q 3275 0 1925 0 
L 628 0 
L 628 4666 
z
" transform="scale(0.015625)"/>
        <path id="DejaVuSans-71" d="M 947 1747 
Q 947 1113 1208 752 
Q 1469 391 1925 391 
Q 2381 391 2643 752 
Q 2906 1113 2906 1747 
Q 2906 2381 2643 2742 
Q 2381 3103 1925 3103 
Q 1469 3103 1208 2742 
Q 947 2381 947 1747 
z
M 2906 525 
Q 2725 213 2448 61 
Q 2172 -91 1784 -91 
Q 1150 -91 751 415 
Q 353 922 353 1747 
Q 353 2572 751 3078 
Q 1150 3584 1784 3584 
Q 2172 3584 2448 3432 
Q 2725 3281 2906 2969 
L 2906 3500 
L 3481 3500 
L 3481 -1331 
L 2906 -1331 
L 2906 525 
z
" transform="scale(0.015625)"/>
       </defs>
       <use xlink:href="#DejaVuSans-53"/>
       <use xlink:href="#DejaVuSans-79" transform="translate(63.476562 0)"/>
       <use xlink:href="#DejaVuSans-6e" transform="translate(122.65625 0)"/>
       <use xlink:href="#DejaVuSans-63" transform="translate(186.035156 0)"/>
       <use xlink:href="#DejaVuSans-68" transform="translate(241.015625 0)"/>
       <use xlink:href="#DejaVuSans-72" transform="translate(304.394531 0)"/>
       <use xlink:href="#DejaVuSans-6f" transform="translate(343.257812 0)"/>
       <use xlink:href="#DejaVuSans-6e" transform="translate(404.439453 0)"/>
       <use xlink:href="#DejaVuSans-69" transform="translate(467.818359 0)"/>
       <use xlink:href="#DejaVuSans-7a" transform="translate(495.601562 0)"/>
       <use xlink:href="#DejaVuSans-65" transform="translate(548.091797 0)"/>
       <use xlink:href="#DejaVuSans-64" transform="translate(609.615234 0)"/>
       <use xlink:href="#DejaVuSans-28" transform="translate(673.091797 0)"/>
       <use xlink:href="#DejaVuSans-4a" transform="translate(712.105469 0)"/>
       <use xlink:href="#DejaVuSans-61" transform="translate(741.597656 0)"/>
       <use xlink:href="#DejaVuSans-76" transform="translate(802.876953 0)"/>
       <use xlink:href="#DejaVuSans-61" transform="translate(862.056641 0)"/>
       <use xlink:href="#DejaVuSans-41" transform="translate(923.335938 0)"/>
       <use xlink:href="#DejaVuSans-72" transform="translate(991.744141 0)"/>
       <use xlink:href="#DejaVuSans-72" transform="translate(1031.107422 0)"/>
       <use xlink:href="#DejaVuSans-61" transform="translate(1072.220703 0)"/>
       <use xlink:href="#DejaVuSans-79" transform="translate(1133.5 0)"/>
       <use xlink:href="#DejaVuSans-44" transform="translate(1192.679688 0)"/>
       <use xlink:href="#DejaVuSans-65" transform="translate(1269.681641 0)"/>
       <use xlink:href="#DejaVuSans-71" transform="translate(1331.205078 0)"/>
       <use xlink:href="#DejaVuSans-75" transform="translate(1394.681641 0)"/>
       <use xlink:href="#DejaVuSans-65" transform="translate(1458.060547 0)"/>
       <use xlink:href="#DejaVuSans-28" transform="translate(1519.583984 0)"/>
       <use xlink:href="#DejaVuSans-31" transform="translate(1558.597656 0)"/>
       <use xlink:href="#DejaVuSans-32" transform="translate(1622.220703 0)"/>
       <use xlink:href="#DejaVuSans-38" transform="translate(1685.84375 0)"/>
       <use xlink:href="#DejaVuSans-29" transform="translate(1749.466797 0)"/>
       <use xlink:href="#DejaVuSans-29" transform="translate(1788.480469 0)"/>
      </g>
     </g>
    </g>
    <g id="xtick_4">
     <g id="line2d_4">
      <g>
       <use xlink:href="#mebf4fd3309" x="193.961228" y="144.74" style="stroke: #000000; stroke-width: 0.8"/>
      </g>
     </g>
     <g id="text_4">
      <!-- Lock(JavaArrayDeque(128)) -->
      <g transform="translate(196.720603 289.99) rotate(-90) scale(0.1 -0.1)">
       <use xlink:href="#DejaVuSans-4c"/>
       <use xlink:href="#DejaVuSans-6f" transform="translate(53.962891 0)"/>
       <use xlink:href="#DejaVuSans-63" transform="translate(115.144531 0)"/>
       <use xlink:href="#DejaVuSans-6b" transform="translate(170.125 0)"/>
       <use xlink:href="#DejaVuSans-28" transform="translate(228.035156 0)"/>
       <use xlink:href="#DejaVuSans-4a" transform="translate(267.048828 0)"/>
       <use xlink:href="#DejaVuSans-61" transform="translate(296.541016 0)"/>
       <use xlink:href="#DejaVuSans-76" transform="translate(357.820312 0)"/>
       <use xlink:href="#DejaVuSans-61" transform="translate(417 0)"/>
       <use xlink:href="#DejaVuSans-41" transform="translate(478.279297 0)"/>
       <use xlink:href="#DejaVuSans-72" transform="translate(546.6875 0)"/>
       <use xlink:href="#DejaVuSans-72" transform="translate(586.050781 0)"/>
       <use xlink:href="#DejaVuSans-61" transform="translate(627.164062 0)"/>
       <use xlink:href="#DejaVuSans-79" transform="translate(688.443359 0)"/>
       <use xlink:href="#DejaVuSans-44" transform="translate(747.623047 0)"/>
       <use xlink:href="#DejaVuSans-65" transform="translate(824.625 0)"/>
       <use xlink:href="#DejaVuSans-71" transform="translate(886.148438 0)"/>
       <use xlink:href="#DejaVuSans-75" transform="translate(949.625 0)"/>
       <use xlink:href="#DejaVuSans-65" transform="translate(1013.003906 0)"/>
       <use xlink:href="#DejaVuSans-28" transform="translate(1074.527344 0)"/>
       <use xlink:href="#DejaVuSans-31" transform="translate(1113.541016 0)"/>
       <use xlink:href="#DejaVuSans-32" transform="translate(1177.164062 0)"/>
       <use xlink:href="#DejaVuSans-38" transform="translate(1240.787109 0)"/>
       <use xlink:href="#DejaVuSans-29" transform="translate(1304.410156 0)"/>
       <use xlink:href="#DejaVuSans-29" transform="translate(1343.423828 0)"/>
      </g>
     </g>
    </g>
    <g id="xtick_5">
     <g id="line2d_5">
      <g>
       <use xlink:href="#mebf4fd3309" x="226.207924" y="144.74" style="stroke: #000000; stroke-width: 0.8"/>
      </g>
     </g>
     <g id="text_5">
      <!-- Lock2(JavaArrayDeque(128)) -->
      <g transform="translate(228.967299 296.3525) rotate(-90) scale(0.1 -0.1)">
       <use xlink:href="#DejaVuSans-4c"/>
       <use xlink:href="#DejaVuSans-6f" transform="translate(53.962891 0)"/>
       <use xlink:href="#DejaVuSans-63" transform="translate(115.144531 0)"/>
       <use xlink:href="#DejaVuSans-6b" transform="translate(170.125 0)"/>
       <use xlink:href="#DejaVuSans-32" transform="translate(228.035156 0)"/>
       <use xlink:href="#DejaVuSans-28" transform="translate(291.658203 0)"/>
       <use xlink:href="#DejaVuSans-4a" transform="translate(330.671875 0)"/>
       <use xlink:href="#DejaVuSans-61" transform="translate(360.164062 0)"/>
       <use xlink:href="#DejaVuSans-76" transform="translate(421.443359 0)"/>
       <use xlink:href="#DejaVuSans-61" transform="translate(480.623047 0)"/>
       <use xlink:href="#DejaVuSans-41" transform="translate(541.902344 0)"/>
       <use xlink:href="#DejaVuSans-72" transform="translate(610.310547 0)"/>
       <use xlink:href="#DejaVuSans-72" transform="translate(649.673828 0)"/>
       <use xlink:href="#DejaVuSans-61" transform="translate(690.787109 0)"/>
       <use xlink:href="#DejaVuSans-79" transform="translate(752.066406 0)"/>
       <use xlink:href="#DejaVuSans-44" transform="translate(811.246094 0)"/>
       <use xlink:href="#DejaVuSans-65" transform="translate(888.248047 0)"/>
       <use xlink:href="#DejaVuSans-71" transform="translate(949.771484 0)"/>
       <use xlink:href="#DejaVuSans-75" transform="translate(1013.248047 0)"/>
       <use xlink:href="#DejaVuSans-65" transform="translate(1076.626953 0)"/>
       <use xlink:href="#DejaVuSans-28" transform="translate(1138.150391 0)"/>
       <use xlink:href="#DejaVuSans-31" transform="translate(1177.164062 0)"/>
       <use xlink:href="#DejaVuSans-32" transform="translate(1240.787109 0)"/>
       <use xlink:href="#DejaVuSans-38" transform="translate(1304.410156 0)"/>
       <use xlink:href="#DejaVuSans-29" transform="translate(1368.033203 0)"/>
       <use xlink:href="#DejaVuSans-29" transform="translate(1407.046875 0)"/>
      </g>
     </g>
    </g>
    <g id="xtick_6">
     <g id="line2d_6">
      <g>
       <use xlink:href="#mebf4fd3309" x="258.454621" y="144.74" style="stroke: #000000; stroke-width: 0.8"/>
      </g>
     </g>
     <g id="text_6">
      <!-- Synchronized(JavaLinkedList) -->
      <g transform="translate(261.213996 298.075938) rotate(-90) scale(0.1 -0.1)">
       <defs>
        <path id="DejaVuSans-73" d="M 2834 3397 
L 2834 2853 
Q 2591 2978 2328 3040 
Q 2066 3103 1784 3103 
Q 1356 3103 1142 2972 
Q 928 2841 928 2578 
Q 928 2378 1081 2264 
Q 1234 2150 1697 2047 
L 1894 2003 
Q 2506 1872 2764 1633 
Q 3022 1394 3022 966 
Q 3022 478 2636 193 
Q 2250 -91 1575 -91 
Q 1294 -91 989 -36 
Q 684 19 347 128 
L 347 722 
Q 666 556 975 473 
Q 1284 391 1588 391 
Q 1994 391 2212 530 
Q 2431 669 2431 922 
Q 2431 1156 2273 1281 
Q 2116 1406 1581 1522 
L 1381 1569 
Q 847 1681 609 1914 
Q 372 2147 372 2553 
Q 372 3047 722 3315 
Q 1072 3584 1716 3584 
Q 2034 3584 2315 3537 
Q 2597 3491 2834 3397 
z
" transform="scale(0.015625)"/>
        <path id="DejaVuSans-74" d="M 1172 4494 
L 1172 3500 
L 2356 3500 
L 2356 3053 
L 1172 3053 
L 1172 1153 
Q 1172 725 1289 603 
Q 1406 481 1766 481 
L 2356 481 
L 2356 0 
L 1766 0 
Q 1100 0 847 248 
Q 594 497 594 1153 
L 594 3053 
L 172 3053 
L 172 3500 
L 594 3500 
L 594 4494 
L 1172 4494 
z
" transform="scale(0.015625)"/>
       </defs>
       <use xlink:href="#DejaVuSans-53"/>
       <use xlink:href="#DejaVuSans-79" transform="translate(63.476562 0)"/>
       <use xlink:href="#DejaVuSans-6e" transform="translate(122.65625 0)"/>
       <use xlink:href="#DejaVuSans-63" transform="translate(186.035156 0)"/>
       <use xlink:href="#DejaVuSans-68" transform="translate(241.015625 0)"/>
       <use xlink:href="#DejaVuSans-72" transform="translate(304.394531 0)"/>
       <use xlink:href="#DejaVuSans-6f" transform="translate(343.257812 0)"/>
       <use xlink:href="#DejaVuSans-6e" transform="translate(404.439453 0)"/>
       <use xlink:href="#DejaVuSans-69" transform="translate(467.818359 0)"/>
       <use xlink:href="#DejaVuSans-7a" transform="translate(495.601562 0)"/>
       <use xlink:href="#DejaVuSans-65" transform="translate(548.091797 0)"/>
       <use xlink:href="#DejaVuSans-64" transform="translate(609.615234 0)"/>
       <use xlink:href="#DejaVuSans-28" transform="translate(673.091797 0)"/>
       <use xlink:href="#DejaVuSans-4a" transform="translate(712.105469 0)"/>
       <use xlink:href="#DejaVuSans-61" transform="translate(741.597656 0)"/>
       <use xlink:href="#DejaVuSans-76" transform="translate(802.876953 0)"/>
       <use xlink:href="#DejaVuSans-61" transform="translate(862.056641 0)"/>
       <use xlink:href="#DejaVuSans-4c" transform="translate(923.335938 0)"/>
       <use xlink:href="#DejaVuSans-69" transform="translate(979.048828 0)"/>
       <use xlink:href="#DejaVuSans-6e" transform="translate(1006.832031 0)"/>
       <use xlink:href="#DejaVuSans-6b" transform="translate(1070.210938 0)"/>
       <use xlink:href="#DejaVuSans-65" transform="translate(1124.496094 0)"/>
       <use xlink:href="#DejaVuSans-64" transform="translate(1186.019531 0)"/>
       <use xlink:href="#DejaVuSans-4c" transform="translate(1249.496094 0)"/>
       <use xlink:href="#DejaVuSans-69" transform="translate(1305.208984 0)"/>
       <use xlink:href="#DejaVuSans-73" transform="translate(1332.992188 0)"/>
       <use xlink:href="#DejaVuSans-74" transform="translate(1385.091797 0)"/>
       <use xlink:href="#DejaVuSans-29" transform="translate(1424.300781 0)"/>
      </g>
     </g>
    </g>
    <g id="xtick_7">
     <g id="line2d_7">
      <g>
       <use xlink:href="#mebf4fd3309" x="290.701318" y="144.74" style="stroke: #000000; stroke-width: 0.8"/>
      </g>
     </g>
     <g id="text_7">
      <!-- Lock(JavaLinkedList) -->
      <g transform="translate(293.460693 253.569687) rotate(-90) scale(0.1 -0.1)">
       <use xlink:href="#DejaVuSans-4c"/>
       <use xlink:href="#DejaVuSans-6f" transform="translate(53.962891 0)"/>
       <use xlink:href="#DejaVuSans-63" transform="translate(115.144531 0)"/>
       <use xlink:href="#DejaVuSans-6b" transform="translate(170.125 0)"/>
       <use xlink:href="#DejaVuSans-28" transform="translate(228.035156 0)"/>
       <use xlink:href="#DejaVuSans-4a" transform="translate(267.048828 0)"/>
       <use xlink:href="#DejaVuSans-61" transform="translate(296.541016 0)"/>
       <use xlink:href="#DejaVuSans-76" transform="translate(357.820312 0)"/>
       <use xlink:href="#DejaVuSans-61" transform="translate(417 0)"/>
       <use xlink:href="#DejaVuSans-4c" transform="translate(478.279297 0)"/>
       <use xlink:href="#DejaVuSans-69" transform="translate(533.992188 0)"/>
       <use xlink:href="#DejaVuSans-6e" transform="translate(561.775391 0)"/>
       <use xlink:href="#DejaVuSans-6b" transform="translate(625.154297 0)"/>
       <use xlink:href="#DejaVuSans-65" transform="translate(679.439453 0)"/>
       <use xlink:href="#DejaVuSans-64" transform="translate(740.962891 0)"/>
       <use xlink:href="#DejaVuSans-4c" transform="translate(804.439453 0)"/>
       <use xlink:href="#DejaVuSans-69" transform="translate(860.152344 0)"/>
       <use xlink:href="#DejaVuSans-73" transform="translate(887.935547 0)"/>
       <use xlink:href="#DejaVuSans-74" transform="translate(940.035156 0)"/>
       <use xlink:href="#DejaVuSans-29" transform="translate(979.244141 0)"/>
      </g>
     </g>
    </g>
    <g id="xtick_8">
     <g id="line2d_8">
      <g>
       <use xlink:href="#mebf4fd3309" x="322.948015" y="144.74" style="stroke: #000000; stroke-width: 0.8"/>
      </g>
     </g>
     <g id="text_8">
      <!-- Lock2(JavaLinkedList) -->
      <g transform="translate(325.70739 259.932187) rotate(-90) scale(0.1 -0.1)">
       <use xlink:href="#DejaVuSans-4c"/>
       <use xlink:href="#DejaVuSans-6f" transform="translate(53.962891 0)"/>
       <use xlink:href="#DejaVuSans-63" transform="translate(115.144531 0)"/>
       <use xlink:href="#DejaVuSans-6b" transform="translate(170.125 0)"/>
       <use xlink:href="#DejaVuSans-32" transform="translate(228.035156 0)"/>
       <use xlink:href="#DejaVuSans-28" transform="translate(291.658203 0)"/>
       <use xlink:href="#DejaVuSans-4a" transform="translate(330.671875 0)"/>
       <use xlink:href="#DejaVuSans-61" transform="translate(360.164062 0)"/>
       <use xlink:href="#DejaVuSans-76" transform="translate(421.443359 0)"/>
       <use xlink:href="#DejaVuSans-61" transform="translate(480.623047 0)"/>
       <use xlink:href="#DejaVuSans-4c" transform="translate(541.902344 0)"/>
       <use xlink:href="#DejaVuSans-69" transform="translate(597.615234 0)"/>
       <use xlink:href="#DejaVuSans-6e" transform="translate(625.398438 0)"/>
       <use xlink:href="#DejaVuSans-6b" transform="translate(688.777344 0)"/>
       <use xlink:href="#DejaVuSans-65" transform="translate(743.0625 0)"/>
       <use xlink:href="#DejaVuSans-64" transform="translate(804.585938 0)"/>
       <use xlink:href="#DejaVuSans-4c" transform="translate(868.0625 0)"/>
       <use xlink:href="#DejaVuSans-69" transform="translate(923.775391 0)"/>
       <use xlink:href="#DejaVuSans-73" transform="translate(951.558594 0)"/>
       <use xlink:href="#DejaVuSans-74" transform="translate(1003.658203 0)"/>
       <use xlink:href="#DejaVuSans-29" transform="translate(1042.867188 0)"/>
      </g>
     </g>
    </g>
    <g id="xtick_9">
     <g id="line2d_9">
      <g>
       <use xlink:href="#mebf4fd3309" x="355.194711" y="144.74" style="stroke: #000000; stroke-width: 0.8"/>
      </g>
     </g>
     <g id="text_9">
      <!-- Synchronized(LinkedList) -->
      <g transform="translate(357.954086 276.950938) rotate(-90) scale(0.1 -0.1)">
       <use xlink:href="#DejaVuSans-53"/>
       <use xlink:href="#DejaVuSans-79" transform="translate(63.476562 0)"/>
       <use xlink:href="#DejaVuSans-6e" transform="translate(122.65625 0)"/>
       <use xlink:href="#DejaVuSans-63" transform="translate(186.035156 0)"/>
       <use xlink:href="#DejaVuSans-68" transform="translate(241.015625 0)"/>
       <use xlink:href="#DejaVuSans-72" transform="translate(304.394531 0)"/>
       <use xlink:href="#DejaVuSans-6f" transform="translate(343.257812 0)"/>
       <use xlink:href="#DejaVuSans-6e" transform="translate(404.439453 0)"/>
       <use xlink:href="#DejaVuSans-69" transform="translate(467.818359 0)"/>
       <use xlink:href="#DejaVuSans-7a" transform="translate(495.601562 0)"/>
       <use xlink:href="#DejaVuSans-65" transform="translate(548.091797 0)"/>
       <use xlink:href="#DejaVuSans-64" transform="translate(609.615234 0)"/>
       <use xlink:href="#DejaVuSans-28" transform="translate(673.091797 0)"/>
       <use xlink:href="#DejaVuSans-4c" transform="translate(712.105469 0)"/>
       <use xlink:href="#DejaVuSans-69" transform="translate(767.818359 0)"/>
       <use xlink:href="#DejaVuSans-6e" transform="translate(795.601562 0)"/>
       <use xlink:href="#DejaVuSans-6b" transform="translate(858.980469 0)"/>
       <use xlink:href="#DejaVuSans-65" transform="translate(913.265625 0)"/>
       <use xlink:href="#DejaVuSans-64" transform="translate(974.789062 0)"/>
       <use xlink:href="#DejaVuSans-4c" transform="translate(1038.265625 0)"/>
       <use xlink:href="#DejaVuSans-69" transform="translate(1093.978516 0)"/>
       <use xlink:href="#DejaVuSans-73" transform="translate(1121.761719 0)"/>
       <use xlink:href="#DejaVuSans-74" transform="translate(1173.861328 0)"/>
       <use xlink:href="#DejaVuSans-29" transform="translate(1213.070312 0)"/>
      </g>
     </g>
    </g>
    <g id="xtick_10">
     <g id="line2d_10">
      <g>
       <use xlink:href="#mebf4fd3309" x="387.441408" y="144.74" style="stroke: #000000; stroke-width: 0.8"/>
      </g>
     </g>
     <g id="text_10">
      <!-- Lock(LinkedList) -->
      <g transform="translate(390.200783 232.444687) rotate(-90) scale(0.1 -0.1)">
       <use xlink:href="#DejaVuSans-4c"/>
       <use xlink:href="#DejaVuSans-6f" transform="translate(53.962891 0)"/>
       <use xlink:href="#DejaVuSans-63" transform="translate(115.144531 0)"/>
       <use xlink:href="#DejaVuSans-6b" transform="translate(170.125 0)"/>
       <use xlink:href="#DejaVuSans-28" transform="translate(228.035156 0)"/>
       <use xlink:href="#DejaVuSans-4c" transform="translate(267.048828 0)"/>
       <use xlink:href="#DejaVuSans-69" transform="translate(322.761719 0)"/>
       <use xlink:href="#DejaVuSans-6e" transform="translate(350.544922 0)"/>
       <use xlink:href="#DejaVuSans-6b" transform="translate(413.923828 0)"/>
       <use xlink:href="#DejaVuSans-65" transform="translate(468.208984 0)"/>
       <use xlink:href="#DejaVuSans-64" transform="translate(529.732422 0)"/>
       <use xlink:href="#DejaVuSans-4c" transform="translate(593.208984 0)"/>
       <use xlink:href="#DejaVuSans-69" transform="translate(648.921875 0)"/>
       <use xlink:href="#DejaVuSans-73" transform="translate(676.705078 0)"/>
       <use xlink:href="#DejaVuSans-74" transform="translate(728.804688 0)"/>
       <use xlink:href="#DejaVuSans-29" transform="translate(768.013672 0)"/>
      </g>
     </g>
    </g>
    <g id="xtick_11">
     <g id="line2d_11">
      <g>
       <use xlink:href="#mebf4fd3309" x="419.688105" y="144.74" style="stroke: #000000; stroke-width: 0.8"/>
      </g>
     </g>
     <g id="text_11">
      <!-- Lock2(LinkedList) -->
      <g transform="translate(422.44748 238.807187) rotate(-90) scale(0.1 -0.1)">
       <use xlink:href="#DejaVuSans-4c"/>
       <use xlink:href="#DejaVuSans-6f" transform="translate(53.962891 0)"/>
       <use xlink:href="#DejaVuSans-63" transform="translate(115.144531 0)"/>
       <use xlink:href="#DejaVuSans-6b" transform="translate(170.125 0)"/>
       <use xlink:href="#DejaVuSans-32" transform="translate(228.035156 0)"/>
       <use xlink:href="#DejaVuSans-28" transform="translate(291.658203 0)"/>
       <use xlink:href="#DejaVuSans-4c" transform="translate(330.671875 0)"/>
       <use xlink:href="#DejaVuSans-69" transform="translate(386.384766 0)"/>
       <use xlink:href="#DejaVuSans-6e" transform="translate(414.167969 0)"/>
       <use xlink:href="#DejaVuSans-6b" transform="translate(477.546875 0)"/>
       <use xlink:href="#DejaVuSans-65" transform="translate(531.832031 0)"/>
       <use xlink:href="#DejaVuSans-64" transform="translate(593.355469 0)"/>
       <use xlink:href="#DejaVuSans-4c" transform="translate(656.832031 0)"/>
       <use xlink:href="#DejaVuSans-69" transform="translate(712.544922 0)"/>
       <use xlink:href="#DejaVuSans-73" transform="translate(740.328125 0)"/>
       <use xlink:href="#DejaVuSans-74" transform="translate(792.427734 0)"/>
       <use xlink:href="#DejaVuSans-29" transform="translate(831.636719 0)"/>
      </g>
     </g>
    </g>
   </g>
   <g id="matplotlib.axis_2">
    <g id="ytick_1">
     <g id="line2d_12">
      <defs>
       <path id="m013639f006" d="M 0 0 
L -3.5 0 
" style="stroke: #000000; stroke-width: 0.8"/>
      </defs>
      <g>
       <use xlink:href="#m013639f006" x="66.909242" y="78.882729" style="stroke: #000000; stroke-width: 0.8"/>
      </g>
     </g>
     <g id="text_12">
      <!-- $\mathdefault{10^{3}}$ -->
      <g transform="translate(42.309242 82.681948) scale(0.1 -0.1)">
       <defs>
        <path id="DejaVuSans-30" d="M 2034 4250 
Q 1547 4250 1301 3770 
Q 1056 3291 1056 2328 
Q 1056 1369 1301 889 
Q 1547 409 2034 409 
Q 2525 409 2770 889 
Q 3016 1369 3016 2328 
Q 3016 3291 2770 3770 
Q 2525 4250 2034 4250 
z
M 2034 4750 
Q 2819 4750 3233 4129 
Q 3647 3509 3647 2328 
Q 3647 1150 3233 529 
Q 2819 -91 2034 -91 
Q 1250 -91 836 529 
Q 422 1150 422 2328 
Q 422 3509 836 4129 
Q 1250 4750 2034 4750 
z
" transform="scale(0.015625)"/>
        <path id="DejaVuSans-33" d="M 2597 2516 
Q 3050 2419 3304 2112 
Q 3559 1806 3559 1356 
Q 3559 666 3084 287 
Q 2609 -91 1734 -91 
Q 1441 -91 1130 -33 
Q 819 25 488 141 
L 488 750 
Q 750 597 1062 519 
Q 1375 441 1716 441 
Q 2309 441 2620 675 
Q 2931 909 2931 1356 
Q 2931 1769 2642 2001 
Q 2353 2234 1838 2234 
L 1294 2234 
L 1294 2753 
L 1863 2753 
Q 2328 2753 2575 2939 
Q 2822 3125 2822 3475 
Q 2822 3834 2567 4026 
Q 2313 4219 1838 4219 
Q 1578 4219 1281 4162 
Q 984 4106 628 3988 
L 628 4550 
Q 988 4650 1302 4700 
Q 1616 4750 1894 4750 
Q 2613 4750 3031 4423 
Q 3450 4097 3450 3541 
Q 3450 3153 3228 2886 
Q 3006 2619 2597 2516 
z
" transform="scale(0.015625)"/>
       </defs>
       <use xlink:href="#DejaVuSans-31" transform="translate(0 0.765625)"/>
       <use xlink:href="#DejaVuSans-30" transform="translate(63.623047 0.765625)"/>
       <use xlink:href="#DejaVuSans-33" transform="translate(128.203125 39.046875) scale(0.7)"/>
      </g>
     </g>
    </g>
    <g id="ytick_2">
     <g id="line2d_13">
      <defs>
       <path id="m1ce886dcdd" d="M 0 0 
L -2 0 
" style="stroke: #000000; stroke-width: 0.6"/>
      </defs>
      <g>
       <use xlink:href="#m1ce886dcdd" x="66.909242" y="140.086301" style="stroke: #000000; stroke-width: 0.6"/>
      </g>
     </g>
    </g>
    <g id="ytick_3">
     <g id="line2d_14">
      <g>
       <use xlink:href="#m1ce886dcdd" x="66.909242" y="123.987656" style="stroke: #000000; stroke-width: 0.6"/>
      </g>
     </g>
     <g id="text_13">
      <!-- $\mathdefault{6\times10^{2}}$ -->
      <g transform="translate(25.309242 127.786875) scale(0.1 -0.1)">
       <defs>
        <path id="DejaVuSans-36" d="M 2113 2584 
Q 1688 2584 1439 2293 
Q 1191 2003 1191 1497 
Q 1191 994 1439 701 
Q 1688 409 2113 409 
Q 2538 409 2786 701 
Q 3034 994 3034 1497 
Q 3034 2003 2786 2293 
Q 2538 2584 2113 2584 
z
M 3366 4563 
L 3366 3988 
Q 3128 4100 2886 4159 
Q 2644 4219 2406 4219 
Q 1781 4219 1451 3797 
Q 1122 3375 1075 2522 
Q 1259 2794 1537 2939 
Q 1816 3084 2150 3084 
Q 2853 3084 3261 2657 
Q 3669 2231 3669 1497 
Q 3669 778 3244 343 
Q 2819 -91 2113 -91 
Q 1303 -91 875 529 
Q 447 1150 447 2328 
Q 447 3434 972 4092 
Q 1497 4750 2381 4750 
Q 2619 4750 2861 4703 
Q 3103 4656 3366 4563 
z
" transform="scale(0.015625)"/>
        <path id="DejaVuSans-d7" d="M 4488 3438 
L 3059 2003 
L 4488 575 
L 4116 197 
L 2681 1631 
L 1247 197 
L 878 575 
L 2303 2003 
L 878 3438 
L 1247 3816 
L 2681 2381 
L 4116 3816 
L 4488 3438 
z
" transform="scale(0.015625)"/>
       </defs>
       <use xlink:href="#DejaVuSans-36" transform="translate(0 0.765625)"/>
       <use xlink:href="#DejaVuSans-d7" transform="translate(83.105469 0.765625)"/>
       <use xlink:href="#DejaVuSans-31" transform="translate(186.376953 0.765625)"/>
       <use xlink:href="#DejaVuSans-30" transform="translate(250 0.765625)"/>
       <use xlink:href="#DejaVuSans-32" transform="translate(314.580078 39.046875) scale(0.7)"/>
      </g>
     </g>
    </g>
    <g id="ytick_4">
     <g id="line2d_15">
      <g>
       <use xlink:href="#m1ce886dcdd" x="66.909242" y="110.376445" style="stroke: #000000; stroke-width: 0.6"/>
      </g>
     </g>
    </g>
    <g id="ytick_5">
     <g id="line2d_16">
      <g>
       <use xlink:href="#m1ce886dcdd" x="66.909242" y="98.585878" style="stroke: #000000; stroke-width: 0.6"/>
      </g>
     </g>
    </g>
    <g id="ytick_6">
     <g id="line2d_17">
      <g>
       <use xlink:href="#m1ce886dcdd" x="66.909242" y="88.185861" style="stroke: #000000; stroke-width: 0.6"/>
      </g>
     </g>
    </g>
    <g id="text_14">
     <!-- Time [ns] -->
     <g transform="translate(19.229555 109.307656) rotate(-90) scale(0.1 -0.1)">
      <defs>
       <path id="DejaVuSans-54" d="M -19 4666 
L 3928 4666 
L 3928 4134 
L 2272 4134 
L 2272 0 
L 1638 0 
L 1638 4134 
L -19 4134 
L -19 4666 
z
" transform="scale(0.015625)"/>
       <path id="DejaVuSans-6d" d="M 3328 2828 
Q 3544 3216 3844 3400 
Q 4144 3584 4550 3584 
Q 5097 3584 5394 3201 
Q 5691 2819 5691 2113 
L 5691 0 
L 5113 0 
L 5113 2094 
Q 5113 2597 4934 2840 
Q 4756 3084 4391 3084 
Q 3944 3084 3684 2787 
Q 3425 2491 3425 1978 
L 3425 0 
L 2847 0 
L 2847 2094 
Q 2847 2600 2669 2842 
Q 2491 3084 2119 3084 
Q 1678 3084 1418 2786 
Q 1159 2488 1159 1978 
L 1159 0 
L 581 0 
L 581 3500 
L 1159 3500 
L 1159 2956 
Q 1356 3278 1631 3431 
Q 1906 3584 2284 3584 
Q 2666 3584 2933 3390 
Q 3200 3197 3328 2828 
z
" transform="scale(0.015625)"/>
       <path id="DejaVuSans-20" transform="scale(0.015625)"/>
       <path id="DejaVuSans-5b" d="M 550 4863 
L 1875 4863 
L 1875 4416 
L 1125 4416 
L 1125 -397 
L 1875 -397 
L 1875 -844 
L 550 -844 
L 550 4863 
z
" transform="scale(0.015625)"/>
       <path id="DejaVuSans-5d" d="M 1947 4863 
L 1947 -844 
L 622 -844 
L 622 -397 
L 1369 -397 
L 1369 4416 
L 622 4416 
L 622 4863 
L 1947 4863 
z
" transform="scale(0.015625)"/>
      </defs>
      <use xlink:href="#DejaVuSans-54"/>
      <use xlink:href="#DejaVuSans-69" transform="translate(57.958984 0)"/>
      <use xlink:href="#DejaVuSans-6d" transform="translate(85.742188 0)"/>
      <use xlink:href="#DejaVuSans-65" transform="translate(183.154297 0)"/>
      <use xlink:href="#DejaVuSans-20" transform="translate(244.677734 0)"/>
      <use xlink:href="#DejaVuSans-5b" transform="translate(276.464844 0)"/>
      <use xlink:href="#DejaVuSans-6e" transform="translate(315.478516 0)"/>
      <use xlink:href="#DejaVuSans-73" transform="translate(378.857422 0)"/>
      <use xlink:href="#DejaVuSans-5d" transform="translate(430.957031 0)"/>
     </g>
    </g>
   </g>
   <g id="LineCollection_1">
    <path d="M 97.221137 40.585324 
L 97.221137 34.986897 
" clip-path="url(#p2f5d7fa4b5)" style="fill: none; stroke: #000000; stroke-width: 1.5"/>
    <path d="M 129.467834 38.047038 
L 129.467834 32.237273 
" clip-path="url(#p2f5d7fa4b5)" style="fill: none; stroke: #000000; stroke-width: 1.5"/>
    <path d="M 161.714531 131.190277 
L 161.714531 93.545032 
" clip-path="url(#p2f5d7fa4b5)" style="fill: none; stroke: #000000; stroke-width: 1.5"/>
    <path d="M 193.961228 118.703898 
L 193.961228 99.696561 
" clip-path="url(#p2f5d7fa4b5)" style="fill: none; stroke: #000000; stroke-width: 1.5"/>
    <path d="M 226.207924 40.014921 
L 226.207924 35.41762 
" clip-path="url(#p2f5d7fa4b5)" style="fill: none; stroke: #000000; stroke-width: 1.5"/>
    <path d="M 258.454621 130.553892 
L 258.454621 91.179304 
" clip-path="url(#p2f5d7fa4b5)" style="fill: none; stroke: #000000; stroke-width: 1.5"/>
    <path d="M 290.701318 124.430254 
L 290.701318 106.188582 
" clip-path="url(#p2f5d7fa4b5)" style="fill: none; stroke: #000000; stroke-width: 1.5"/>
    <path d="M 322.948015 41.447898 
L 322.948015 36.176478 
" clip-path="url(#p2f5d7fa4b5)" style="fill: none; stroke: #000000; stroke-width: 1.5"/>
    <path d="M 355.194711 139.382727 
L 355.194711 99.584862 
" clip-path="url(#p2f5d7fa4b5)" style="fill: none; stroke: #000000; stroke-width: 1.5"/>
    <path d="M 387.441408 137.647935 
L 387.441408 117.055986 
" clip-path="url(#p2f5d7fa4b5)" style="fill: none; stroke: #000000; stroke-width: 1.5"/>
    <path d="M 419.688105 43.375753 
L 419.688105 37.714046 
" clip-path="url(#p2f5d7fa4b5)" style="fill: none; stroke: #000000; stroke-width: 1.5"/>
   </g>
   <g id="line2d_18">
    <defs>
     <path id="mfe398fd634" d="M 5 0 
L -5 -0 
" style="stroke: #000000"/>
    </defs>
    <g clip-path="url(#p2f5d7fa4b5)">
     <use xlink:href="#mfe398fd634" x="97.221137" y="40.585324" style="stroke: #000000"/>
     <use xlink:href="#mfe398fd634" x="129.467834" y="38.047038" style="stroke: #000000"/>
     <use xlink:href="#mfe398fd634" x="161.714531" y="131.190277" style="stroke: #000000"/>
     <use xlink:href="#mfe398fd634" x="193.961228" y="118.703898" style="stroke: #000000"/>
     <use xlink:href="#mfe398fd634" x="226.207924" y="40.014921" style="stroke: #000000"/>
     <use xlink:href="#mfe398fd634" x="258.454621" y="130.553892" style="stroke: #000000"/>
     <use xlink:href="#mfe398fd634" x="290.701318" y="124.430254" style="stroke: #000000"/>
     <use xlink:href="#mfe398fd634" x="322.948015" y="41.447898" style="stroke: #000000"/>
     <use xlink:href="#mfe398fd634" x="355.194711" y="139.382727" style="stroke: #000000"/>
     <use xlink:href="#mfe398fd634" x="387.441408" y="137.647935" style="stroke: #000000"/>
     <use xlink:href="#mfe398fd634" x="419.688105" y="43.375753" style="stroke: #000000"/>
    </g>
   </g>
   <g id="line2d_19">
    <g clip-path="url(#p2f5d7fa4b5)">
     <use xlink:href="#mfe398fd634" x="97.221137" y="34.986897" style="stroke: #000000"/>
     <use xlink:href="#mfe398fd634" x="129.467834" y="32.237273" style="stroke: #000000"/>
     <use xlink:href="#mfe398fd634" x="161.714531" y="93.545032" style="stroke: #000000"/>
     <use xlink:href="#mfe398fd634" x="193.961228" y="99.696561" style="stroke: #000000"/>
     <use xlink:href="#mfe398fd634" x="226.207924" y="35.41762" style="stroke: #000000"/>
     <use xlink:href="#mfe398fd634" x="258.454621" y="91.179304" style="stroke: #000000"/>
     <use xlink:href="#mfe398fd634" x="290.701318" y="106.188582" style="stroke: #000000"/>
     <use xlink:href="#mfe398fd634" x="322.948015" y="36.176478" style="stroke: #000000"/>
     <use xlink:href="#mfe398fd634" x="355.194711" y="99.584862" style="stroke: #000000"/>
     <use xlink:href="#mfe398fd634" x="387.441408" y="117.055986" style="stroke: #000000"/>
     <use xlink:href="#mfe398fd634" x="419.688105" y="37.714046" style="stroke: #000000"/>
    </g>
   </g>
   <g id="patch_14">
    <path d="M 66.909242 144.74 
L 66.909242 26.88 
" style="fill: none; stroke: #000000; stroke-width: 0.8; stroke-linejoin: miter; stroke-linecap: square"/>
   </g>
   <g id="patch_15">
    <path d="M 450 144.74 
L 450 26.88 
" style="fill: none; stroke: #000000; stroke-width: 0.8; stroke-linejoin: miter; stroke-linecap: square"/>
   </g>
   <g id="patch_16">
    <path d="M 66.909242 144.74 
L 450 144.74 
" style="fill: none; stroke: #000000; stroke-width: 0.8; stroke-linejoin: miter; stroke-linecap: square"/>
   </g>
   <g id="patch_17">
    <path d="M 66.909242 26.88 
L 450 26.88 
" style="fill: none; stroke: #000000; stroke-width: 0.8; stroke-linejoin: miter; stroke-linecap: square"/>
   </g>
   <g id="text_15">
    <!-- BurstBlockingWriteBench(20) -->
    <g transform="translate(170.215246 20.88) scale(0.12 -0.12)">
     <defs>
      <path id="DejaVuSans-57" d="M 213 4666 
L 850 4666 
L 1831 722 
L 2809 4666 
L 3519 4666 
L 4500 722 
L 5478 4666 
L 6119 4666 
L 4947 0 
L 4153 0 
L 3169 4050 
L 2175 0 
L 1381 0 
L 213 4666 
z
" transform="scale(0.015625)"/>
     </defs>
     <use xlink:href="#DejaVuSans-42"/>
     <use xlink:href="#DejaVuSans-75" transform="translate(68.603516 0)"/>
     <use xlink:href="#DejaVuSans-72" transform="translate(131.982422 0)"/>
     <use xlink:href="#DejaVuSans-73" transform="translate(173.095703 0)"/>
     <use xlink:href="#DejaVuSans-74" transform="translate(225.195312 0)"/>
     <use xlink:href="#DejaVuSans-42" transform="translate(264.404297 0)"/>
     <use xlink:href="#DejaVuSans-6c" transform="translate(333.007812 0)"/>
     <use xlink:href="#DejaVuSans-6f" transform="translate(360.791016 0)"/>
     <use xlink:href="#DejaVuSans-63" transform="translate(421.972656 0)"/>
     <use xlink:href="#DejaVuSans-6b" transform="translate(476.953125 0)"/>
     <use xlink:href="#DejaVuSans-69" transform="translate(534.863281 0)"/>
     <use xlink:href="#DejaVuSans-6e" transform="translate(562.646484 0)"/>
     <use xlink:href="#DejaVuSans-67" transform="translate(626.025391 0)"/>
     <use xlink:href="#DejaVuSans-57" transform="translate(689.501953 0)"/>
     <use xlink:href="#DejaVuSans-72" transform="translate(783.878906 0)"/>
     <use xlink:href="#DejaVuSans-69" transform="translate(824.992188 0)"/>
     <use xlink:href="#DejaVuSans-74" transform="translate(852.775391 0)"/>
     <use xlink:href="#DejaVuSans-65" transform="translate(891.984375 0)"/>
     <use xlink:href="#DejaVuSans-42" transform="translate(953.507812 0)"/>
     <use xlink:href="#DejaVuSans-65" transform="translate(1022.111328 0)"/>
     <use xlink:href="#DejaVuSans-6e" transform="translate(1083.634766 0)"/>
     <use xlink:href="#DejaVuSans-63" transform="translate(1147.013672 0)"/>
     <use xlink:href="#DejaVuSans-68" transform="translate(1201.994141 0)"/>
     <use xlink:href="#DejaVuSans-28" transform="translate(1265.373047 0)"/>
     <use xlink:href="#DejaVuSans-32" transform="translate(1304.386719 0)"/>
     <use xlink:href="#DejaVuSans-30" transform="translate(1368.009766 0)"/>
     <use xlink:href="#DejaVuSans-29" transform="translate(1431.632812 0)"/>
    </g>
   </g>
  </g>
 </g>
 <defs>
  <clipPath id="p2f5d7fa4b5">
   <rect x="66.909242" y="26.88" width="383.090758" height="117.86"/>
  </clipPath>
 </defs>
</svg>
